<?xml version="1.0" encoding="iso-8859-1"?>
<!-- Generator: Adobe Illustrator 17.1.0, SVG Export Plug-In . SVG Version: 6.00 Build 0)  -->
<!DOCTYPE svg PUBLIC "-//W3C//DTD SVG 1.1//EN" "http://www.w3.org/Graphics/SVG/1.1/DTD/svg11.dtd">
<svg version="1.1" id="Capa_1" xmlns="http://www.w3.org/2000/svg" xmlns:xlink="http://www.w3.org/1999/xlink" x="0px" y="0px"
	 viewBox="0 0 217.465 217.465" style="enable-background:new 0 0 217.465 217.465;" xml:space="preserve">
<path d="M108.732,152.869c-24.337,0-44.137-19.8-44.137-44.137c0-24.337,19.8-44.137,44.137-44.137
	c24.337,0,44.137,19.8,44.137,44.137C152.869,133.07,133.07,152.869,108.732,152.869z M108.732,75.505
	c-18.322,0-33.227,14.906-33.227,33.228c0,18.322,14.906,33.227,33.227,33.227c18.322,0,33.227-14.906,33.227-33.227
	C141.96,90.411,127.054,75.505,108.732,75.505z M108.732,129.388c-11.408,0-20.655-9.248-20.655-20.656
	c0-11.408,9.248-20.655,20.655-20.655c11.408,0,20.655,9.248,20.655,20.655C129.388,120.14,120.14,129.388,108.732,129.388z
	 M108.732,0C48.777,0,0,48.778,0,108.732s48.777,108.732,108.732,108.732s108.732-48.777,108.732-108.732S168.687,0,108.732,0z
	 M108.732,46.79c-34.155,0-61.942,27.787-61.942,61.942c0,2.762-2.239,5-5,5s-5-2.238-5-5c0-39.669,32.273-71.942,71.942-71.942
	c2.761,0,5,2.238,5,5S111.494,46.79,108.732,46.79z M108.732,26.306c-45.45,0-82.427,36.977-82.427,82.427c0,2.762-2.239,5-5,5
	s-5-2.238-5-5c0-50.964,41.462-92.427,92.427-92.427c2.761,0,5,2.238,5,5S111.494,26.306,108.732,26.306z"/>
<g>
</g>
<g>
</g>
<g>
</g>
<g>
</g>
<g>
</g>
<g>
</g>
<g>
</g>
<g>
</g>
<g>
</g>
<g>
</g>
<g>
</g>
<g>
</g>
<g>
</g>
<g>
</g>
<g>
</g>
</svg>
